<?xml version="1.0" encoding="utf-8"?>
<!-- Generator: Adobe Illustrator 26.0.1, SVG Export Plug-In . SVG Version: 6.00 Build 0)  -->
<svg version="1.1" id="Layer_1" xmlns="http://www.w3.org/2000/svg" xmlns:xlink="http://www.w3.org/1999/xlink" x="0px" y="0px"
	 viewBox="0 0 500 500" style="enable-background:new 0 0 500 500;" xml:space="preserve">
<style type="text/css">
	.st0{fill:#FFFFFF;}
	.st1{fill:url(#SVGID_1_);}
	.st2{fill:url(#SVGID_00000011729221368437426690000011279309534594866081_);}
</style>
<g>
	<circle class="st0" cx="250" cy="250" r="215.9"/>
	<g>
		<g>
			<linearGradient id="SVGID_1_" gradientUnits="userSpaceOnUse" x1="190.8" y1="254.95" x2="302.7" y2="254.95">
				<stop  offset="5.497733e-02" style="stop-color:#4F46E5"/>
				<stop  offset="0.2366" style="stop-color:#4B5AE8"/>
				<stop  offset="0.6077" style="stop-color:#418FF1"/>
				<stop  offset="0.902" style="stop-color:#38BDF8"/>
			</linearGradient>
			<path class="st1" d="M302.7,305.5l-111.9-39.6V244l111.9-39.6V225l-90.2,30l90.2,30V305.5z"/>
		</g>
		<g>
			
				<linearGradient id="SVGID_00000183966173688825162820000007550227876175662994_" gradientUnits="userSpaceOnUse" x1="139.3" y1="250" x2="360.7" y2="250">
				<stop  offset="5.497733e-02" style="stop-color:#4F46E5"/>
				<stop  offset="0.2366" style="stop-color:#4B5AE8"/>
				<stop  offset="0.6077" style="stop-color:#418FF1"/>
				<stop  offset="0.902" style="stop-color:#38BDF8"/>
			</linearGradient>
			<path style="fill:url(#SVGID_00000183966173688825162820000007550227876175662994_);" d="M298,360.7H139.3V202
				c0-34.6,28.1-62.7,62.7-62.7h158.7V298C360.7,332.6,332.6,360.7,298,360.7z M152.7,347.3H298c27.1,0,49.2-22.1,49.2-49.2V152.7
				H202c-27.1,0-49.2,22.1-49.2,49.2v145.4H152.7z"/>
		</g>
	</g>
</g>
</svg>
