<svg id="Layer_1" data-name="Layer 1" xmlns="http://www.w3.org/2000/svg" viewBox="0 0 500 101.69"><defs><style>.cls-1{fill:#fff;}</style></defs><polygon class="cls-1" points="51.49 51.23 51.49 51.58 51.26 51.69 51.49 51.23"/><polygon class="cls-1" points="51.26 51.91 51.49 52.02 51.49 52.3 51.26 51.91"/><path class="cls-1" d="M41.9,12.79A18,18,0,0,0,24,30.74V88.9H82.11a18,18,0,0,0,18-18V12.79ZM78.8,38.5,51.49,51.58V52l27.31,13v7.29l-36-18.28V49.43l36-18.28Z"/><path class="cls-1" d="M126.76,20.3V77.38h-8.62V20.3Zm9.88,57.08h-14.1V69.87h13.6A21.55,21.55,0,0,0,147,67.38a15.37,15.37,0,0,0,6.46-7.22,27.82,27.82,0,0,0,2.12-11.4,27.6,27.6,0,0,0-2.1-11.34,15.46,15.46,0,0,0-6.32-7.14,20.55,20.55,0,0,0-10.54-2.47h-14.4V20.3h15a28.81,28.81,0,0,1,14.46,3.43,22.93,22.93,0,0,1,9.27,9.8,33.29,33.29,0,0,1,3.23,15.23,33.48,33.48,0,0,1-3.25,15.31,22.91,22.91,0,0,1-9.43,9.86A30,30,0,0,1,136.64,77.38Z"/><path class="cls-1" d="M177,29.11a5.06,5.06,0,0,1-3.66-1.46,4.88,4.88,0,0,1,0-7.06A5.12,5.12,0,0,1,177,19.15a5.18,5.18,0,0,1,3.7,1.44,4.88,4.88,0,0,1,0,7.06A5.12,5.12,0,0,1,177,29.11Zm-4.1,48.27V35.85h8.24V77.38Z"/><path class="cls-1" d="M211.57,35.85v6.78H186.86V35.85ZM194.49,77.38V30.07a10.88,10.88,0,0,1,1.55-6,9.8,9.8,0,0,1,4.27-3.69,14.52,14.52,0,0,1,6.24-1.27,34.82,34.82,0,0,1,3.58.17q1.59.18,2.25.33l-.89,6.74c-.33-.05-.85-.11-1.57-.17s-1.41-.1-2.1-.1a5.13,5.13,0,0,0-3.91,1.27,5.61,5.61,0,0,0-1.19,3.94V77.38Z"/><path class="cls-1" d="M229.58,78.14a17.94,17.94,0,0,1-7.28-1.41,11.6,11.6,0,0,1-5.1-4.24,12.17,12.17,0,0,1-1.87-6.91,11.09,11.09,0,0,1,1.36-5.82,10.06,10.06,0,0,1,3.67-3.6,18.79,18.79,0,0,1,5.23-2,54.43,54.43,0,0,1,6-1l6.07-.79a8.52,8.52,0,0,0,3.31-.93,2.32,2.32,0,0,0,1-2.11V49a7.07,7.07,0,0,0-1-3.73,6.23,6.23,0,0,0-2.78-2.45,10.28,10.28,0,0,0-4.46-.87,11.59,11.59,0,0,0-4.65.85A8.37,8.37,0,0,0,226,45a6.94,6.94,0,0,0-1.59,3.12l-7.93-.92a13.55,13.55,0,0,1,3.16-6.55,15.15,15.15,0,0,1,6.05-4.08,22.68,22.68,0,0,1,8.14-1.4A23.2,23.2,0,0,1,240,36a15.72,15.72,0,0,1,5.25,2.49,11.8,11.8,0,0,1,3.62,4.36,14.57,14.57,0,0,1,1.32,6.48v28H242.1V71.59h-.27a11.85,11.85,0,0,1-2.39,3.14,12,12,0,0,1-4,2.46A16.25,16.25,0,0,1,229.58,78.14Zm1.72-6.58a12,12,0,0,0,5.9-1.33,9,9,0,0,0,3.58-3.48A9.39,9.39,0,0,0,242,62.09V57a4.07,4.07,0,0,1-1.52.7,23.35,23.35,0,0,1-2.56.6c-1,.18-2,.34-3,.5l-2.89.42a20.1,20.1,0,0,0-4.21,1,7.71,7.71,0,0,0-3.13,2,4.92,4.92,0,0,0-1.16,3.41,5.07,5.07,0,0,0,1,3.18,6.24,6.24,0,0,0,2.74,2A11,11,0,0,0,231.3,71.56Z"/><path class="cls-1" d="M272.44,78.14a18,18,0,0,1-7.28-1.41,11.63,11.63,0,0,1-5.09-4.24,12.17,12.17,0,0,1-1.88-6.91,11.19,11.19,0,0,1,1.36-5.82,10.08,10.08,0,0,1,3.68-3.6,18.67,18.67,0,0,1,5.23-2,54.66,54.66,0,0,1,6-1l6.08-.79a8.52,8.52,0,0,0,3.31-.93,2.31,2.31,0,0,0,1-2.11V49a7.16,7.16,0,0,0-1-3.73,6.28,6.28,0,0,0-2.78-2.45,10.28,10.28,0,0,0-4.46-.87,11.68,11.68,0,0,0-4.66.85A8.53,8.53,0,0,0,268.82,45a7.14,7.14,0,0,0-1.59,3.12l-7.93-.92a13.64,13.64,0,0,1,3.16-6.55,15.26,15.26,0,0,1,6.06-4.08,22.64,22.64,0,0,1,8.14-1.4,23.13,23.13,0,0,1,6.16.81,15.53,15.53,0,0,1,5.25,2.49,11.71,11.71,0,0,1,3.62,4.36A14.57,14.57,0,0,1,293,49.34v28h-8V71.59h-.27a11.85,11.85,0,0,1-2.39,3.14,12.08,12.08,0,0,1-4,2.46A16.21,16.21,0,0,1,272.44,78.14Zm1.73-6.58a12,12,0,0,0,5.9-1.33,9,9,0,0,0,3.58-3.48,9.49,9.49,0,0,0,1.2-4.66V57a4,4,0,0,1-1.51.7,23.58,23.58,0,0,1-2.57.6c-1,.18-2,.34-3,.5l-2.89.42a20.2,20.2,0,0,0-4.22,1,7.74,7.74,0,0,0-3.12,2,4.92,4.92,0,0,0-1.17,3.41,5,5,0,0,0,1,3.18,6.18,6.18,0,0,0,2.74,2A11,11,0,0,0,274.17,71.56Z"/><path class="cls-1" d="M320.75,78.3a19.28,19.28,0,0,1-10.31-2.72A18.47,18.47,0,0,1,303.59,68a24.52,24.52,0,0,1-2.46-11.22,24.83,24.83,0,0,1,2.46-11.32,18.47,18.47,0,0,1,6.85-7.61,19.28,19.28,0,0,1,10.31-2.72,20.62,20.62,0,0,1,6.49,1,17.41,17.41,0,0,1,5.35,2.82,16.21,16.21,0,0,1,3.87,4.34,16,16,0,0,1,2.06,5.64l-8,.88a9.9,9.9,0,0,0-1.17-3.09,9.15,9.15,0,0,0-2.05-2.41,9,9,0,0,0-2.85-1.57,11.34,11.34,0,0,0-3.66-.56,10.05,10.05,0,0,0-6.19,1.88,11.47,11.47,0,0,0-3.79,5.17,20.6,20.6,0,0,0-1.29,7.55,20.2,20.2,0,0,0,1.29,7.45,11.46,11.46,0,0,0,3.79,5.15,10.05,10.05,0,0,0,6.19,1.88,11.34,11.34,0,0,0,3.66-.56,8.52,8.52,0,0,0,2.83-1.59,9.41,9.41,0,0,0,2-2.47,12.41,12.41,0,0,0,1.25-3.16l8,.84A16.47,16.47,0,0,1,336.53,70a16,16,0,0,1-3.89,4.43,17.47,17.47,0,0,1-5.38,2.87A20.28,20.28,0,0,1,320.75,78.3Z"/><path class="cls-1" d="M366.68,78.3a27.48,27.48,0,0,1-11.49-2.21,17.3,17.3,0,0,1-7.51-6.28,18.05,18.05,0,0,1-2.8-9.75h8.62a10.67,10.67,0,0,0,1.8,5.86,10.36,10.36,0,0,0,4.62,3.64,17.35,17.35,0,0,0,6.76,1.23,18,18,0,0,0,6.61-1.13,10.26,10.26,0,0,0,4.46-3.2,7.66,7.66,0,0,0,1.61-4.83,6.25,6.25,0,0,0-1.25-3.94,9.81,9.81,0,0,0-3.65-2.76,31.68,31.68,0,0,0-6-2L362,51.29q-7.9-2-11.84-5.69A12.54,12.54,0,0,1,346.22,36a15,15,0,0,1,2.59-8.72A16.77,16.77,0,0,1,356,21.51a25.45,25.45,0,0,1,10.52-2.05A24.43,24.43,0,0,1,377,21.58a17,17,0,0,1,7,5.94,16.41,16.41,0,0,1,2.67,8.94h-8.36a9.31,9.31,0,0,0-3.6-7A13.43,13.43,0,0,0,366.34,27a15.43,15.43,0,0,0-6,1.1,9.42,9.42,0,0,0-4.06,3,7.27,7.27,0,0,0-1.46,4.45,5.91,5.91,0,0,0,1.35,4,10.13,10.13,0,0,0,3.73,2.66A31.61,31.61,0,0,0,365.45,44l5.87,1.5a37.24,37.24,0,0,1,6.62,2.18,21.31,21.31,0,0,1,5.27,3.24,13.43,13.43,0,0,1,3.49,4.48,13.64,13.64,0,0,1,1.24,6,15.3,15.3,0,0,1-2.59,8.83A17,17,0,0,1,378,76.17,27.58,27.58,0,0,1,366.68,78.3Z"/><path class="cls-1" d="M414.18,78.3a19.78,19.78,0,0,1-10.59-2.74A18.25,18.25,0,0,1,396.77,68a24.83,24.83,0,0,1-2.39-11.16,25.09,25.09,0,0,1,2.41-11.25,18.72,18.72,0,0,1,6.76-7.66,18.29,18.29,0,0,1,10.06-2.78,19.93,19.93,0,0,1,7.47,1.38,16.89,16.89,0,0,1,6,4.1,19.19,19.19,0,0,1,4,6.69,26.42,26.42,0,0,1,1.46,9.13V59H398.48V52.78h29.84l-3.72,2A16.1,16.1,0,0,0,423.3,48a10.21,10.21,0,0,0-3.74-4.46A10.56,10.56,0,0,0,413.65,42a10.71,10.71,0,0,0-5.9,1.59A10.49,10.49,0,0,0,403.9,48a14.36,14.36,0,0,0-1.36,6.39v3.84a16.35,16.35,0,0,0,1.41,7,10.49,10.49,0,0,0,4.06,4.6,11.84,11.84,0,0,0,6.25,1.61,12.79,12.79,0,0,0,4.52-.75,8.67,8.67,0,0,0,5.36-5.53L432,66a14.35,14.35,0,0,1-3.32,6.44,17.1,17.1,0,0,1-6.18,4.33A21.21,21.21,0,0,1,414.18,78.3Z"/><path class="cls-1" d="M458.2,78.3a19.25,19.25,0,0,1-10.31-2.72A18.47,18.47,0,0,1,441,68a24.52,24.52,0,0,1-2.46-11.22A24.83,24.83,0,0,1,441,45.45a18.47,18.47,0,0,1,6.85-7.61,19.25,19.25,0,0,1,10.31-2.72,20.62,20.62,0,0,1,6.49,1A17.25,17.25,0,0,1,470,38.94a15.8,15.8,0,0,1,5.94,10l-8,.88a9.9,9.9,0,0,0-1.17-3.09,9.15,9.15,0,0,0-2.05-2.41,8.91,8.91,0,0,0-2.86-1.57,11.23,11.23,0,0,0-3.65-.56,10,10,0,0,0-6.19,1.88,11.47,11.47,0,0,0-3.79,5.17A20.6,20.6,0,0,0,447,56.77a20.2,20.2,0,0,0,1.29,7.45,11.46,11.46,0,0,0,3.79,5.15,10,10,0,0,0,6.19,1.88,11.23,11.23,0,0,0,3.65-.56,8.56,8.56,0,0,0,2.84-1.59,9.41,9.41,0,0,0,2-2.47A12,12,0,0,0,468,63.47l8.05.84A16.47,16.47,0,0,1,474,70a16,16,0,0,1-3.89,4.43,17.47,17.47,0,0,1-5.38,2.87A20.28,20.28,0,0,1,458.2,78.3Z"/></svg>